Model2392_S4_states																							
version=1																							
nRows=50																							
nColumns=24																							
inDegrees=yes																							
																							
"Units are S.I. units (second, meters, Newtons, ...)"																							
Angles are in degrees.																							
																							
endheader																							
time	pelvis_tilt	pelvis_list	pelvis_rotation	pelvis_tx	pelvis_ty	pelvis_tz	hip_flexion_r	hip_adduction_r	hip_rotation_r	knee_angle_r	ankle_angle_r	subtalar_angle_r	mtp_angle_r	hip_flexion_l	hip_adduction_l	hip_rotation_l	knee_angle_l	ankle_angle_l	subtalar_angle_l	mtp_angle	lumbar_extension	lumbar_bending	lumbar_rotation
1.56978576	0	0	0	0	0.95	0	26.6074032	0	0	-9.01013168	5.72098415	0	0	-17.3147789	0	0	-11.02006459	4.84500787	0	0	0	0	0
1.56994342	0	0	0	0	0.95	0	26.61382657	0	0	-9.01117106	5.72092925	0	0	-17.31877899	0	0	-11.0264197	4.82604128	0	0	0	0	0
1.56999822	0	0	0	0	0.95	0	26.61606023	0	0	-9.01155424	5.72087215	0	0	-17.32016945	0	0	-11.02861757	4.81929405	0	0	0	0	0
1.57000691	0	0	0	0	0.95	0	26.61641447	0	0	-9.01161602	5.72086124	0	0	-17.32038994	0	0	-11.02896558	4.81821707	0	0	0	0	0
1.5700156	0	0	0	0	0.95	0	26.61676871	0	0	-9.01167809	5.72084982	0	0	-17.32061042	0	0	-11.02931345	4.81713817	0	0	0	0	0
1.57005905	0	0	0	0	0.95	0	26.6185401	0	0	-9.01199256	5.72078497	0	0	-17.32171283	0	0	-11.03105078	4.81171527	0	0	0	0	0
1.57027629	0	0	0	0	0.95	0	26.62740036	0	0	-9.01366703	5.72026113	0	0	-17.32722417	0	0	-11.03968903	4.78392351	0	0	0	0	0
1.57111384	0	0	0	0	0.95	0	26.66157448	0	0	-9.02160746	5.71477132	0	0	-17.34842739	0	0	-11.07240154	4.66845383	0	0	0	0	0
1.57230721	0	0	0	0	0.95	0	26.71013719	0	0	-9.0365124	5.69591256	0	0	-17.37831024	0	0	-11.11838874	4.49467218	0	0	0	0	0
1.57368808	0	0	0	0	0.95	0	26.76592611	0	0	-9.05842767	5.65647262	0	0	-17.41195098	0	0	-11.17295951	4.31049201	0	0	0	0	0
1.57506896	0	0	0	0	0.95	0	26.82128325	0	0	-9.08539732	5.59969133	0	0	-17.4441111	0	0	-11.23140861	4.17663118	0	0	0	0	0
1.57622523	0	0	0	0	0.95	0	26.86748515	0	0	-9.11243968	5.54244037	0	0	-17.46968462	0	0	-11.28448839	4.11857327	0	0	0	0	0
1.5773815	0	0	0	0	0.95	0	26.91380351	0	0	-9.14433849	5.48088053	0	0	-17.49399409	0	0	-11.34154955	4.11276332	0	0	0	0	0
1.57853778	0	0	0	0	0.95	0	26.96051196	0	0	-9.18194142	5.41960895	0	0	-17.51715541	0	0	-11.40206535	4.15259532	0	0	0	0	0
1.5799409	0	0	0	0	0.95	0	27.01809707	0	0	-9.23639705	5.35137398	0	0	-17.54405063	0	0	-11.47852315	4.24127148	0	0	0	0	0
1.57999142	0	0	0	0	0.95	0	27.02019384	0	0	-9.2385529	5.34910501	0	0	-17.54500017	0	0	-11.4813081	4.24489786	0	0	0	0	0
1.58000449	0	0	0	0	0.95	0	27.02073656	0	0	-9.23911291	5.34852044	0	0	-17.54524565	0	0	-11.48202872	4.24583817	0	0	0	0	0
1.58001756	0	0	0	0	0.95	0	27.02127941	0	0	-9.23967386	5.34793687	0	0	-17.54549105	0	0	-11.4827494	4.2467793	0	0	0	0	0
1.5800829	0	0	0	0	0.95	0	27.02399546	0	0	-9.24249279	5.34503407	0	0	-17.54671704	0	0	-11.48635362	4.25149635	0	0	0	0	0
1.58040963	0	0	0	0	0.95	0	27.03762237	0	0	-9.25694456	5.3309041	0	0	-17.55282295	0	0	-11.50438649	4.27524599	0	0	0	0	0
1.58179405	0	0	0	0	0.95	0	27.09627655	0	0	-9.3249433	5.2784874	0	0	-17.57838853	0	0	-11.58030075	4.36924452	0	0	0	0	0
1.58302357	0	0	0	0	0.95	0	27.14966114	0	0	-9.39469807	5.2417079	0	0	-17.60095432	0	0	-11.64560046	4.42380709	0	0	0	0	0
1.58412144	0	0	0	0	0.95	0	27.19832713	0	0	-9.46438203	5.21487248	0	0	-17.62119248	0	0	-11.70113993	4.43438926	0	0	0	0	0
1.58521931	0	0	0	0	0.95	0	27.24783039	0	0	-9.54077859	5.19104281	0	0	-17.64157597	0	0	-11.75368118	4.40332753	0	0	0	0	0
1.58631718	0	0	0	0	0.95	0	27.29802056	0	0	-9.62348339	5.16719904	0	0	-17.66205225	0	0	-11.80342226	4.33305804	0	0	0	0	0
1.58741505	0	0	0	0	0.95	0	27.34872168	0	0	-9.71202435	5.14046713	0	0	-17.68247517	0	0	-11.85105041	4.23284018	0	0	0	0	0
1.58851292	0	0	0	0	0.95	0	27.39974954	0	0	-9.80592064	5.10862373	0	0	-17.70263928	0	0	-11.89757721	4.11646722	0	0	0	0	0
1.58993561	0	0	0	0	0.95	0	27.46605809	0	0	-9.93480771	5.05781064	0	0	-17.72802806	0	0	-11.95803705	3.96638414	0	0	0	0	0
1.58998847	0	0	0	0	0.95	0	27.46852125	0	0	-9.93974237	5.0557069	0	0	-17.72895042	0	0	-11.96031263	3.96117351	0	0	0	0	0
1.59000521	0	0	0	0	0.95	0	27.46930101	0	0	-9.9413067	5.05503773	0	0	-17.72924208	0	0	-11.96103367	3.95953196	0	0	0	0	0
1.59002194	0	0	0	0	0.95	0	27.47008074	0	0	-9.94287203	5.05436704	0	0	-17.72953357	0	0	-11.96175502	3.95789437	0	0	0	0	0
1.59010562	0	0	0	0	0.95	0	27.47397897	0	0	-9.95071354	5.05099096	0	0	-17.73098847	0	0	-11.96536638	3.94976687	0	0	0	0	0
1.59052402	0	0	0	0	0.95	0	27.49345724	0	0	-9.99028709	5.0335551	0	0	-17.7381975	0	0	-11.98354846	3.91077204	0	0	0	0	0
1.59186355	0	0	0	0	0.95	0	27.555572	0	0	-10.12084446	4.97205317	0	0	-17.76049106	0	0	-12.04344392	3.8082435	0	0	0	0	0
1.59320307	0	0	0	0	0.95	0	27.61709488	0	0	-10.25673769	4.90354651	0	0	-17.78153105	0	0	-12.10620566	3.74387747	0	0	0	0	0
1.59454259	0	0	0	0	0.95	0	27.67785299	0	0	-10.39746769	4.83027138	0	0	-17.80138236	0	0	-12.17149746	3.71324427	0	0	0	0	0
1.59588212	0	0	0	0	0.95	0	27.73781851	0	0	-10.54282852	4.75408263	0	0	-17.82023419	0	0	-12.23831726	3.70295334	0	0	0	0	0
1.59718624	0	0	0	0	0.95	0	27.7955347	0	0	-10.68885405	4.67813244	0	0	-17.83786101	0	0	-12.30358774	3.69564864	0	0	0	0	0
1.59849037	0	0	0	0	0.95	0	27.85278733	0	0	-10.83958904	4.60054478	0	0	-17.85498683	0	0	-12.3678944	3.67507354	0	0	0	0	0
1.5997945	0	0	0	0	0.95	0	27.90983993	0	0	-10.99545906	4.5205902	0	0	-17.87176459	0	0	-12.4303839	3.62961295	0	0	0	0	0
1.5999896	0	0	0	0	0.95	0	27.91837677	0	0	-11.01925163	4.50834762	0	0	-17.87424987	0	0	-12.43954554	3.62025789	0	0	0	0	0
1.60001093	0	0	0	0	0.95	0	27.9193104	0	0	-11.02186096	4.50700374	0	0	-17.87452124	0	0	-12.44054422	3.61919311	0	0	0	0	0
1.60003226	0	0	0	0	0.95	0	27.92024409	0	0	-11.02447184	4.5056588	0	0	-17.87479254	0	0	-12.4415423	3.61812007	0	0	0	0	0
1.60013892	0	0	0	0	0.95	0	27.92491324	0	0	-11.03754955	4.49891791	0	0	-17.87614795	0	0	-12.44652361	3.61263078	0	0	0	0	0
1.60067223	0	0	0	0	0.95	0	27.94828258	0	0	-11.10353065	4.46478828	0	0	-17.88289729	0	0	-12.47120354	3.58209133	0	0	0	0	0
1.60190939	0	0	0	0	0.95	0	28.00272133	0	0	-11.26053504	4.38277263	0	0	-17.8983573	0	0	-12.52707793	3.49230097	0	0	0	0	0
1.60314656	0	0	0	0	0.95	0	28.05758121	0	0	-11.42324389	4.29734758	0	0	-17.91345955	0	0	-12.5813865	3.38029268	0	0	0	0	0
1.60438372	0	0	0	0	0.95	0	28.11289771	0	0	-11.59172017	4.21022509	0	0	-17.92806064	0	0	-12.63477757	3.25379549	0	0	0	0	0
1.60590464	0	0	0	0	0.95	0	28.18144376	0	0	-11.80654925	4.10425371	0	0	-17.94509408	0	0	-12.70021601	3.09105862	0	0	0	0	0
1.60776211	0	0	0	0	0.95	0	28.2656178	0	0	-12.07961306	3.9823663	0	0	-17.96419197	0	0	-12.7813753	2.89966767	0	0	0	0	0
